<svg height="511pt" viewBox="0 -24 511.99969 511" width="511pt" xmlns="http://www.w3.org/2000/svg"><path d="m508.972656 186.34375-69.105468-51.273438v-127.054687c0-4.152344-3.363282-7.515625-7.515626-7.515625h-95.1875c-4.148437 0-7.511718 3.363281-7.511718 7.515625v45.28125l-69.167969-51.316406c-2.660156-1.9726565-6.296875-1.9726565-8.957031 0l-248.488282 184.363281c-2.605468 1.929688-3.675781 5.316406-2.660156 8.390625 1.019532 3.078125 3.894532 5.160156 7.136719 5.160156h48.59375v257.003907c0 4.152343 3.367187 7.515624 7.515625 7.515624h384.761719c4.148437 0 7.511719-3.363281 7.511719-7.515624v-35.066407c0-4.152343-3.363282-7.515625-7.511719-7.515625-4.152344 0-7.515625 3.363282-7.515625 7.515625v27.554688h-369.730469v-257.007813c0-4.152344-3.363281-7.515625-7.515625-7.515625h-33.367188l225.746094-167.492187 76.683594 56.894531c4.867188 3.613281 11.992188.011719 11.992188-6.035156v-52.699219h80.160156v123.324219c0 2.378906 1.125 4.617187 3.035156 6.035156l53.878906 39.972656h-33.367187c-4.152344 0-7.515625 3.367188-7.515625 7.515625v193.382813c0 4.148437 3.363281 7.515625 7.515625 7.515625 4.148437 0 7.511719-3.367188 7.511719-7.515625v-185.867188h48.597656c3.101562 0 5.957031-1.984375 7.039062-4.890625 1.15625-3.097656.09375-6.6875-2.5625-8.660156zm0 0"/><path d="m232.457031 392.773438c0 12.984374 10.566407 23.546874 23.546875 23.546874 12.984375 0 23.546875-10.5625 23.546875-23.546874 0-12.984376-10.5625-23.546876-23.546875-23.546876-12.980468 0-23.546875 10.5625-23.546875 23.546876zm32.066407 0c0 4.695312-3.820313 8.519531-8.519532 8.519531-4.695312 0-8.515625-3.824219-8.515625-8.519531 0-4.695313 3.820313-8.515626 8.515625-8.515626 4.699219 0 8.519532 3.820313 8.519532 8.515626zm0 0"/><path d="m332.171875 324.203125c7.617187-7.617187 7.617187-20.015625 0-27.632813-20.34375-20.34375-47.394531-31.546874-76.164063-31.546874-28.773437 0-55.820312 11.203124-76.167968 31.546874-7.617188 7.617188-7.617188 20.015626 0 27.632813 3.808594 3.808594 8.8125 5.710937 13.816406 5.710937s10.007812-1.902343 13.816406-5.710937c12.964844-12.964844 30.199219-20.105469 48.535156-20.105469 18.332032 0 35.566407 7.140625 48.53125 20.105469 7.617188 7.617187 20.011719 7.617187 27.632813 0zm-135.328125-10.628906c-1.8125 1.816406-4.871094 1.71875-6.570312-.207031-1.550782-1.761719-1.460938-4.511719.195312-6.167969 17.503906-17.507813 40.78125-27.148438 65.539062-27.148438 24.753907 0 48.03125 9.640625 65.535157 27.148438 1.816406 1.816406 1.71875 4.921875-.242188 6.597656-1.726562 1.476563-4.523437 1.386719-6.132812-.222656-15.804688-15.800781-36.816407-24.503907-59.160157-24.503907-22.347656 0-43.359374 8.703126-59.164062 24.503907zm0 0"/><path d="m358.03125 290.238281c5 0 10.003906-1.902343 13.816406-5.710937 7.617188-7.621094 7.617188-20.015625 0-27.632813-30.941406-30.941406-72.082031-47.984375-115.84375-47.984375-43.757812 0-84.898437 17.042969-115.839844 47.984375-7.617187 7.617188-7.617187 20.015625 0 27.632813 7.617188 7.617187 20.011719 7.617187 27.632813 0 23.5625-23.5625 54.886719-36.539063 88.207031-36.539063 33.324219 0 64.648438 12.976563 88.210938 36.539063 3.808594 3.808594 8.8125 5.710937 13.816406 5.710937zm-200.859375-16.339843c-1.761719 1.757812-4.621094 1.757812-6.378906 0-1.757813-1.757813-1.757813-4.621094 0-6.378907 28.101562-28.101562 65.46875-43.578125 105.210937-43.578125 39.746094 0 77.113282 15.476563 105.214844 43.578125 1.710938 1.714844 1.726562 4.667969 0 6.378907-1.695312 1.679687-4.683594 1.691406-6.378906 0-26.398438-26.402344-61.5-40.941407-98.835938-40.941407-37.335937 0-72.433594 14.542969-98.832031 40.941407zm0 0"/><path d="m284.347656 368.179688c5.246094 0 10.152344-2.015626 13.8125-5.675782 3.691406-3.691406 5.726563-8.597656 5.726563-13.816406s-2.035157-10.125-5.722657-13.816406c-11.261718-11.261719-26.234374-17.460938-42.15625-17.460938-15.925781 0-30.898437 6.199219-42.15625 17.460938-7.53125 7.53125-7.53125 20.101562 0 27.632812s20.097657 7.53125 27.628907 0c3.882812-3.878906 9.039062-6.015625 14.527343-6.015625 5.484376 0 10.644532 2.136719 14.523438 6.011719 3.644531 3.652344 8.664062 5.679688 13.816406 5.679688zm-28.34375-26.722657c-9.5 0-18.433594 3.699219-25.152344 10.417969-1.734374 1.738281-4.636718 1.738281-6.375 0-1.738281-1.738281-1.738281-4.636719 0-6.375 8.421876-8.421875 19.617188-13.058594 31.527344-13.058594s23.109375 4.636719 31.53125 13.058594c1.902344 1.902344 1.691406 5.191406-.492187 6.796875-1.734375 1.277344-4.355469 1.109375-5.886719-.421875-6.714844-6.71875-15.648438-10.417969-25.152344-10.417969zm0 0"/></svg>